<svg xmlns="http://www.w3.org/2000/svg" version="1.1" xmlns:xlink="http://www.w3.org/1999/xlink" xmlns:svgjs="http://svgjs.com/svgjs" width="768" height="704"><svg width="768" height="704" viewBox="0 0 768 704" fill="none" xmlns="http://www.w3.org/2000/svg">
<rect y="272" width="180" height="96" rx="8" fill="#181C2A"></rect>
<path d="M80.7045 335L96.3182 304.114V303.841H78.3182V300.091H100.682V304.045L85.1364 335H80.7045Z" fill="#F8F9FC"></path>
<rect y="160" width="180" height="96" rx="8" fill="#181C2A"></rect>
<path d="M104.818 199H100.591C100.341 197.784 99.9034 196.716 99.2784 195.795C98.6648 194.875 97.9148 194.102 97.0284 193.477C96.1534 192.841 95.1818 192.364 94.1136 192.045C93.0455 191.727 91.9318 191.568 90.7727 191.568C88.6591 191.568 86.7443 192.102 85.0284 193.17C83.3239 194.239 81.9659 195.812 80.9545 197.892C79.9545 199.972 79.4545 202.523 79.4545 205.545C79.4545 208.568 79.9545 211.119 80.9545 213.199C81.9659 215.278 83.3239 216.852 85.0284 217.92C86.7443 218.989 88.6591 219.523 90.7727 219.523C91.9318 219.523 93.0455 219.364 94.1136 219.045C95.1818 218.727 96.1534 218.256 97.0284 217.631C97.9148 216.994 98.6648 216.216 99.2784 215.295C99.9034 214.364 100.341 213.295 100.591 212.091H104.818C104.5 213.875 103.92 215.472 103.08 216.881C102.239 218.29 101.193 219.489 99.9432 220.477C98.6932 221.455 97.2898 222.199 95.733 222.71C94.1875 223.222 92.5341 223.477 90.7727 223.477C87.7955 223.477 85.1477 222.75 82.8295 221.295C80.5114 219.841 78.6875 217.773 77.358 215.091C76.0284 212.409 75.3636 209.227 75.3636 205.545C75.3636 201.864 76.0284 198.682 77.358 196C78.6875 193.318 80.5114 191.25 82.8295 189.795C85.1477 188.341 87.7955 187.614 90.7727 187.614C92.5341 187.614 94.1875 187.869 95.733 188.381C97.2898 188.892 98.6932 189.642 99.9432 190.631C101.193 191.608 102.239 192.801 103.08 194.21C103.92 195.608 104.5 197.205 104.818 199Z" fill="#F8F9FC"></path>
<rect y="384" width="180" height="96" rx="8" fill="#181C2A"></rect>
<path d="M77.2955 439.841V436.364L92.6364 412.091H95.1591V417.477H93.4545L81.8636 435.818V436.091H102.523V439.841H77.2955ZM93.7273 447V438.784V437.165V412.091H97.75V447H93.7273Z" fill="#F8F9FC"></path>
<rect y="496" width="180" height="96" rx="8" fill="#181C2A"></rect>
<path d="M94.3864 524.091V559H90.1591V528.523H89.9545L81.4318 534.182V529.886L90.1591 524.091H94.3864Z" fill="#F8F9FC"></path>
<rect y="608" width="376" height="96" rx="8" fill="#181C2A"></rect>
<path d="M188 671.477C185.432 671.477 183.244 670.778 181.438 669.381C179.631 667.972 178.25 665.932 177.295 663.261C176.341 660.58 175.864 657.341 175.864 653.545C175.864 649.773 176.341 646.551 177.295 643.881C178.261 641.199 179.648 639.153 181.455 637.744C183.273 636.324 185.455 635.614 188 635.614C190.545 635.614 192.722 636.324 194.528 637.744C196.347 639.153 197.733 641.199 198.688 643.881C199.653 646.551 200.136 649.773 200.136 653.545C200.136 657.341 199.659 660.58 198.705 663.261C197.75 665.932 196.369 667.972 194.562 669.381C192.756 670.778 190.568 671.477 188 671.477ZM188 667.727C190.545 667.727 192.523 666.5 193.932 664.045C195.341 661.591 196.045 658.091 196.045 653.545C196.045 650.523 195.722 647.949 195.074 645.824C194.438 643.699 193.517 642.08 192.312 640.966C191.119 639.852 189.682 639.295 188 639.295C185.477 639.295 183.506 640.54 182.085 643.028C180.665 645.506 179.955 649.011 179.955 653.545C179.955 656.568 180.273 659.136 180.909 661.25C181.545 663.364 182.46 664.972 183.653 666.074C184.858 667.176 186.307 667.727 188 667.727Z" fill="#F8F9FC"></path>
<rect x="196" y="272" width="180" height="96" rx="8" fill="#181C2A"></rect>
<path d="M285.795 335.477C283.455 335.477 281.386 335.062 279.591 334.233C277.807 333.392 276.415 332.239 275.415 330.773C274.415 329.295 273.92 327.614 273.932 325.727C273.92 324.25 274.21 322.886 274.801 321.636C275.392 320.375 276.199 319.324 277.222 318.483C278.256 317.631 279.409 317.091 280.682 316.864V316.659C279.011 316.227 277.682 315.29 276.693 313.847C275.705 312.392 275.216 310.739 275.227 308.886C275.216 307.114 275.665 305.528 276.574 304.131C277.483 302.733 278.733 301.631 280.324 300.824C281.926 300.017 283.75 299.614 285.795 299.614C287.818 299.614 289.625 300.017 291.216 300.824C292.807 301.631 294.057 302.733 294.966 304.131C295.886 305.528 296.352 307.114 296.364 308.886C296.352 310.739 295.847 312.392 294.847 313.847C293.858 315.29 292.545 316.227 290.909 316.659V316.864C292.17 317.091 293.307 317.631 294.318 318.483C295.33 319.324 296.136 320.375 296.739 321.636C297.341 322.886 297.648 324.25 297.659 325.727C297.648 327.614 297.136 329.295 296.125 330.773C295.125 332.239 293.733 333.392 291.949 334.233C290.176 335.062 288.125 335.477 285.795 335.477ZM285.795 331.727C287.375 331.727 288.739 331.472 289.886 330.96C291.034 330.449 291.92 329.727 292.545 328.795C293.17 327.864 293.489 326.773 293.5 325.523C293.489 324.205 293.148 323.04 292.477 322.028C291.807 321.017 290.892 320.222 289.733 319.642C288.585 319.062 287.273 318.773 285.795 318.773C284.307 318.773 282.977 319.062 281.807 319.642C280.648 320.222 279.733 321.017 279.062 322.028C278.403 323.04 278.08 324.205 278.091 325.523C278.08 326.773 278.381 327.864 278.994 328.795C279.619 329.727 280.511 330.449 281.67 330.96C282.83 331.472 284.205 331.727 285.795 331.727ZM285.795 315.159C287.045 315.159 288.153 314.909 289.119 314.409C290.097 313.909 290.864 313.21 291.42 312.312C291.977 311.415 292.261 310.364 292.273 309.159C292.261 307.977 291.983 306.949 291.438 306.074C290.892 305.187 290.136 304.506 289.17 304.028C288.205 303.54 287.08 303.295 285.795 303.295C284.489 303.295 283.347 303.54 282.369 304.028C281.392 304.506 280.636 305.187 280.102 306.074C279.568 306.949 279.307 307.977 279.318 309.159C279.307 310.364 279.574 311.415 280.119 312.312C280.676 313.21 281.443 313.909 282.42 314.409C283.398 314.909 284.523 315.159 285.795 315.159Z" fill="#F8F9FC"></path>
<rect x="196" y="160" width="180" height="96" rx="8" fill="#181C2A"></rect>
<path d="M283.318 199H279.091C278.841 197.784 278.403 196.716 277.778 195.795C277.165 194.875 276.415 194.102 275.528 193.477C274.653 192.841 273.682 192.364 272.614 192.045C271.545 191.727 270.432 191.568 269.273 191.568C267.159 191.568 265.244 192.102 263.528 193.17C261.824 194.239 260.466 195.812 259.455 197.892C258.455 199.972 257.955 202.523 257.955 205.545C257.955 208.568 258.455 211.119 259.455 213.199C260.466 215.278 261.824 216.852 263.528 217.92C265.244 218.989 267.159 219.523 269.273 219.523C270.432 219.523 271.545 219.364 272.614 219.045C273.682 218.727 274.653 218.256 275.528 217.631C276.415 216.994 277.165 216.216 277.778 215.295C278.403 214.364 278.841 213.295 279.091 212.091H283.318C283 213.875 282.42 215.472 281.58 216.881C280.739 218.29 279.693 219.489 278.443 220.477C277.193 221.455 275.79 222.199 274.233 222.71C272.688 223.222 271.034 223.477 269.273 223.477C266.295 223.477 263.648 222.75 261.33 221.295C259.011 219.841 257.188 217.773 255.858 215.091C254.528 212.409 253.864 209.227 253.864 205.545C253.864 201.864 254.528 198.682 255.858 196C257.188 193.318 259.011 191.25 261.33 189.795C263.648 188.341 266.295 187.614 269.273 187.614C271.034 187.614 272.688 187.869 274.233 188.381C275.79 188.892 277.193 189.642 278.443 190.631C279.693 191.608 280.739 192.801 281.58 194.21C282.42 195.608 283 197.205 283.318 199ZM318.24 199H314.013C313.763 197.784 313.325 196.716 312.7 195.795C312.087 194.875 311.337 194.102 310.45 193.477C309.575 192.841 308.604 192.364 307.536 192.045C306.467 191.727 305.354 191.568 304.195 191.568C302.081 191.568 300.166 192.102 298.45 193.17C296.746 194.239 295.388 195.812 294.376 197.892C293.376 199.972 292.876 202.523 292.876 205.545C292.876 208.568 293.376 211.119 294.376 213.199C295.388 215.278 296.746 216.852 298.45 217.92C300.166 218.989 302.081 219.523 304.195 219.523C305.354 219.523 306.467 219.364 307.536 219.045C308.604 218.727 309.575 218.256 310.45 217.631C311.337 216.994 312.087 216.216 312.7 215.295C313.325 214.364 313.763 213.295 314.013 212.091H318.24C317.922 213.875 317.342 215.472 316.501 216.881C315.661 218.29 314.615 219.489 313.365 220.477C312.115 221.455 310.712 222.199 309.155 222.71C307.609 223.222 305.956 223.477 304.195 223.477C301.217 223.477 298.57 222.75 296.251 221.295C293.933 219.841 292.109 217.773 290.78 215.091C289.45 212.409 288.786 209.227 288.786 205.545C288.786 201.864 289.45 198.682 290.78 196C292.109 193.318 293.933 191.25 296.251 189.795C298.57 188.341 301.217 187.614 304.195 187.614C305.956 187.614 307.609 187.869 309.155 188.381C310.712 188.892 312.115 189.642 313.365 190.631C314.615 191.608 315.661 192.801 316.501 194.21C317.342 195.608 317.922 197.205 318.24 199Z" fill="#F8F9FC"></path>
<rect x="196" y="384" width="180" height="96" rx="8" fill="#181C2A"></rect>
<path d="M285.523 447.477C283.523 447.477 281.722 447.08 280.119 446.284C278.517 445.489 277.233 444.398 276.267 443.011C275.301 441.625 274.773 440.045 274.682 438.273H278.773C278.932 439.852 279.648 441.159 280.92 442.193C282.205 443.216 283.739 443.727 285.523 443.727C286.955 443.727 288.227 443.392 289.341 442.722C290.466 442.051 291.347 441.131 291.983 439.96C292.631 438.778 292.955 437.443 292.955 435.955C292.955 434.432 292.619 433.074 291.949 431.881C291.29 430.676 290.381 429.727 289.222 429.034C288.063 428.341 286.739 427.989 285.25 427.977C284.182 427.966 283.085 428.131 281.96 428.472C280.835 428.801 279.909 429.227 279.182 429.75L275.227 429.273L277.341 412.091H295.477V415.841H280.886L279.659 426.136H279.864C280.58 425.568 281.477 425.097 282.557 424.722C283.636 424.347 284.761 424.159 285.932 424.159C288.068 424.159 289.972 424.67 291.642 425.693C293.324 426.705 294.642 428.091 295.597 429.852C296.562 431.614 297.045 433.625 297.045 435.886C297.045 438.114 296.545 440.102 295.545 441.852C294.557 443.591 293.193 444.966 291.455 445.977C289.716 446.977 287.739 447.477 285.523 447.477Z" fill="#F8F9FC"></path>
<rect x="196" y="496" width="180" height="96" rx="8" fill="#181C2A"></rect>
<path d="M274.614 559V555.932L286.136 543.318C287.489 541.841 288.602 540.557 289.477 539.466C290.352 538.364 291 537.33 291.42 536.364C291.852 535.386 292.068 534.364 292.068 533.295C292.068 532.068 291.773 531.006 291.182 530.108C290.602 529.21 289.807 528.517 288.795 528.028C287.784 527.54 286.648 527.295 285.386 527.295C284.045 527.295 282.875 527.574 281.875 528.131C280.886 528.676 280.119 529.443 279.574 530.432C279.04 531.42 278.773 532.58 278.773 533.909H274.75C274.75 531.864 275.222 530.068 276.165 528.523C277.108 526.977 278.392 525.773 280.017 524.909C281.653 524.045 283.489 523.614 285.523 523.614C287.568 523.614 289.381 524.045 290.96 524.909C292.54 525.773 293.778 526.937 294.676 528.403C295.574 529.869 296.023 531.5 296.023 533.295C296.023 534.58 295.79 535.835 295.324 537.062C294.869 538.278 294.074 539.636 292.938 541.136C291.812 542.625 290.25 544.443 288.25 546.591L280.409 554.977V555.25H296.636V559H274.614Z" fill="#F8F9FC"></path>
<rect x="392" y="272" width="180" height="96" rx="8" fill="#181C2A"></rect>
<path d="M481.727 299.614C483.159 299.625 484.591 299.898 486.023 300.432C487.455 300.966 488.761 301.852 489.943 303.091C491.125 304.318 492.074 305.994 492.79 308.119C493.506 310.244 493.864 312.909 493.864 316.114C493.864 319.216 493.568 321.972 492.977 324.381C492.398 326.778 491.557 328.801 490.455 330.449C489.364 332.097 488.034 333.347 486.466 334.199C484.909 335.051 483.148 335.477 481.182 335.477C479.227 335.477 477.483 335.091 475.949 334.318C474.426 333.534 473.176 332.449 472.199 331.062C471.233 329.665 470.614 328.045 470.341 326.205H474.5C474.875 327.807 475.619 329.131 476.733 330.176C477.858 331.21 479.341 331.727 481.182 331.727C483.875 331.727 486 330.551 487.557 328.199C489.125 325.847 489.909 322.523 489.909 318.227H489.636C489 319.182 488.244 320.006 487.369 320.699C486.494 321.392 485.523 321.926 484.455 322.301C483.386 322.676 482.25 322.864 481.045 322.864C479.045 322.864 477.21 322.369 475.54 321.381C473.881 320.381 472.551 319.011 471.551 317.273C470.562 315.523 470.068 313.523 470.068 311.273C470.068 309.136 470.545 307.182 471.5 305.409C472.466 303.625 473.818 302.205 475.557 301.148C477.307 300.091 479.364 299.58 481.727 299.614ZM481.727 303.364C480.295 303.364 479.006 303.722 477.858 304.438C476.722 305.142 475.818 306.097 475.148 307.301C474.489 308.494 474.159 309.818 474.159 311.273C474.159 312.727 474.477 314.051 475.114 315.244C475.761 316.426 476.642 317.369 477.756 318.074C478.881 318.767 480.159 319.114 481.591 319.114C482.67 319.114 483.676 318.903 484.608 318.483C485.54 318.051 486.352 317.466 487.045 316.727C487.75 315.977 488.301 315.131 488.699 314.188C489.097 313.233 489.295 312.239 489.295 311.205C489.295 309.841 488.966 308.562 488.307 307.369C487.659 306.176 486.761 305.21 485.614 304.472C484.477 303.733 483.182 303.364 481.727 303.364Z" fill="#F8F9FC"></path>
<rect x="392" y="160" width="180" height="96" rx="8" fill="#181C2A"></rect>
<path d="M480.364 207.727L480.636 200.227L474.295 204.25L472.659 201.386L479.341 197.909L472.659 194.432L474.295 191.568L480.636 195.591L480.364 188.091H483.636L483.364 195.591L489.705 191.568L491.341 194.432L484.659 197.909L491.341 201.386L489.705 204.25L483.364 200.227L483.636 207.727H480.364Z" fill="#F8F9FC"></path>
<rect x="392" y="384" width="180" height="96" rx="8" fill="#181C2A"></rect>
<path d="M482.205 447.477C480.773 447.455 479.341 447.182 477.909 446.659C476.477 446.136 475.17 445.256 473.989 444.017C472.807 442.767 471.858 441.08 471.142 438.955C470.426 436.818 470.068 434.136 470.068 430.909C470.068 427.818 470.358 425.08 470.938 422.693C471.517 420.295 472.358 418.278 473.46 416.642C474.563 414.994 475.892 413.744 477.449 412.892C479.017 412.04 480.784 411.614 482.75 411.614C484.705 411.614 486.443 412.006 487.966 412.79C489.5 413.562 490.75 414.642 491.716 416.028C492.682 417.415 493.307 419.011 493.591 420.818H489.432C489.045 419.25 488.295 417.949 487.182 416.915C486.068 415.881 484.591 415.364 482.75 415.364C480.045 415.364 477.915 416.54 476.358 418.892C474.813 421.244 474.034 424.545 474.023 428.795H474.295C474.932 427.83 475.688 427.006 476.562 426.324C477.449 425.631 478.426 425.097 479.494 424.722C480.563 424.347 481.693 424.159 482.886 424.159C484.886 424.159 486.716 424.659 488.375 425.659C490.034 426.648 491.364 428.017 492.364 429.767C493.364 431.506 493.864 433.5 493.864 435.75C493.864 437.909 493.381 439.886 492.415 441.682C491.449 443.466 490.091 444.886 488.341 445.943C486.602 446.989 484.557 447.5 482.205 447.477ZM482.205 443.727C483.636 443.727 484.92 443.369 486.057 442.653C487.205 441.937 488.108 440.977 488.767 439.773C489.438 438.568 489.773 437.227 489.773 435.75C489.773 434.307 489.449 432.994 488.801 431.812C488.165 430.619 487.284 429.67 486.159 428.966C485.045 428.261 483.773 427.909 482.341 427.909C481.261 427.909 480.256 428.125 479.324 428.557C478.392 428.977 477.574 429.557 476.869 430.295C476.176 431.034 475.631 431.881 475.233 432.835C474.835 433.778 474.636 434.773 474.636 435.818C474.636 437.205 474.96 438.5 475.608 439.705C476.267 440.909 477.165 441.881 478.301 442.619C479.449 443.358 480.75 443.727 482.205 443.727Z" fill="#F8F9FC"></path>
<rect x="392" y="496" width="180" height="96" rx="8" fill="#181C2A"></rect>
<path d="M481.909 559.477C479.659 559.477 477.653 559.091 475.892 558.318C474.142 557.545 472.75 556.472 471.716 555.097C470.693 553.71 470.136 552.102 470.045 550.273H474.341C474.432 551.398 474.818 552.369 475.5 553.188C476.182 553.994 477.074 554.619 478.176 555.062C479.278 555.506 480.5 555.727 481.841 555.727C483.341 555.727 484.67 555.466 485.83 554.943C486.989 554.42 487.898 553.693 488.557 552.761C489.216 551.83 489.545 550.75 489.545 549.523C489.545 548.239 489.227 547.108 488.591 546.131C487.955 545.142 487.023 544.369 485.795 543.812C484.568 543.256 483.068 542.977 481.295 542.977H478.5V539.227H481.295C482.682 539.227 483.898 538.977 484.943 538.477C486 537.977 486.824 537.273 487.415 536.364C488.017 535.455 488.318 534.386 488.318 533.159C488.318 531.977 488.057 530.949 487.534 530.074C487.011 529.199 486.273 528.517 485.318 528.028C484.375 527.54 483.261 527.295 481.977 527.295C480.773 527.295 479.636 527.517 478.568 527.96C477.511 528.392 476.648 529.023 475.977 529.852C475.307 530.67 474.943 531.659 474.886 532.818H470.795C470.864 530.989 471.415 529.386 472.449 528.011C473.483 526.625 474.835 525.545 476.506 524.773C478.188 524 480.034 523.614 482.045 523.614C484.205 523.614 486.057 524.051 487.602 524.926C489.148 525.79 490.335 526.932 491.165 528.352C491.994 529.773 492.409 531.307 492.409 532.955C492.409 534.92 491.892 536.597 490.858 537.983C489.835 539.369 488.443 540.33 486.682 540.864V541.136C488.886 541.5 490.608 542.437 491.847 543.949C493.085 545.449 493.705 547.307 493.705 549.523C493.705 551.42 493.188 553.125 492.153 554.636C491.131 556.136 489.733 557.318 487.96 558.182C486.188 559.045 484.17 559.477 481.909 559.477Z" fill="#F8F9FC"></path>
<rect x="392" y="608" width="180" height="96" rx="8" fill="#181C2A"></rect>
<path d="M481.614 671.273C480.773 671.273 480.051 670.972 479.449 670.369C478.847 669.767 478.545 669.045 478.545 668.205C478.545 667.364 478.847 666.642 479.449 666.04C480.051 665.437 480.773 665.136 481.614 665.136C482.455 665.136 483.176 665.437 483.778 666.04C484.381 666.642 484.682 667.364 484.682 668.205C484.682 668.761 484.54 669.273 484.256 669.739C483.983 670.205 483.614 670.58 483.148 670.864C482.693 671.136 482.182 671.273 481.614 671.273Z" fill="#F8F9FC"></path>
<rect x="588" y="272" width="180" height="96" rx="8" fill="#181C2A"></rect>
<path d="M685.182 318.159V321.909H669.909V318.159H685.182Z" fill="#F8F9FC"></path>
<rect x="588" y="160" width="180" height="96" rx="8" fill="#181C2A"></rect>
<path d="M685.023 186.455L673.773 228.25H670.091L681.341 186.455H685.023Z" fill="#F8F9FC"></path>
<rect x="588" y="384" width="180" height="96" rx="8" fill="#181C2A"></rect>
<path d="M675.909 444.614V422.114H679.727V444.614H675.909ZM666.568 435.273V431.455H689.068V435.273H666.568Z" fill="#F8F9FC"></path>
<rect x="588" y="496" width="180" height="208" rx="8" fill="#181C2A"></rect>
<path d="M667.318 598.159V594.477H688.318V598.159H667.318ZM667.318 608.25V604.568H688.318V608.25H667.318Z" fill="#F8F9FC"></path>
<rect width="768" height="96" rx="10" fill="#252D4A"></rect>
<path d="M677.33 57.0341V54.1364L690.114 33.9091H692.216V38.3977H690.795L681.136 53.6818V53.9091H698.352V57.0341H677.33ZM691.023 63V56.1534V54.804V33.9091H694.375V63H691.023ZM712.766 63.3977C711.1 63.3977 709.599 63.0663 708.263 62.4034C706.928 61.7405 705.858 60.8314 705.053 59.6761C704.248 58.5208 703.808 57.2045 703.732 55.7273H707.141C707.274 57.0436 707.871 58.1326 708.931 58.9943C710.001 59.8466 711.28 60.2727 712.766 60.2727C713.96 60.2727 715.02 59.9934 715.948 59.4347C716.886 58.8759 717.62 58.1089 718.15 57.1335C718.69 56.1487 718.96 55.036 718.96 53.7955C718.96 52.5265 718.68 51.3949 718.121 50.4006C717.572 49.3968 716.815 48.6061 715.849 48.0284C714.883 47.4508 713.78 47.1572 712.539 47.1477C711.649 47.1383 710.735 47.2756 709.798 47.5597C708.86 47.8343 708.088 48.1894 707.482 48.625L704.187 48.2273L705.948 33.9091H721.062V37.0341H708.903L707.88 45.6136H708.05C708.647 45.1402 709.395 44.7472 710.295 44.4347C711.194 44.1222 712.132 43.9659 713.107 43.9659C714.888 43.9659 716.474 44.392 717.866 45.2443C719.267 46.0871 720.366 47.2424 721.161 48.7102C721.966 50.178 722.369 51.8542 722.369 53.7386C722.369 55.5947 721.952 57.2519 721.119 58.7102C720.295 60.1591 719.158 61.3049 717.71 62.1477C716.261 62.9811 714.613 63.3977 712.766 63.3977ZM738.239 33.9091V63H734.716V37.6023H734.545L727.443 42.3182V38.7386L734.716 33.9091H738.239Z" fill="#F8F9FC"></path>
</svg><style>@media (prefers-color-scheme: light) { :root { filter: none; } }
</style></svg>