<svg width="768" height="544" viewBox="0 0 768 544" fill="none" xmlns="http://www.w3.org/2000/svg">
<rect y="112" width="180" height="96" rx="8" fill="#181C2A"/>
<path d="M80.7045 175L96.3182 144.114V143.841H78.3182V140.091H100.682V144.045L85.1364 175H80.7045Z" fill="#F8F9FC"/>
<rect width="180" height="96" rx="8" fill="#181C2A"/>
<path d="M104.818 39H100.591C100.341 37.7841 99.9034 36.7159 99.2784 35.7955C98.6648 34.875 97.9148 34.1023 97.0284 33.4773C96.1534 32.8409 95.1818 32.3636 94.1136 32.0455C93.0455 31.7273 91.9318 31.5682 90.7727 31.5682C88.6591 31.5682 86.7443 32.1023 85.0284 33.1705C83.3239 34.2386 81.9659 35.8125 80.9545 37.892C79.9545 39.9716 79.4545 42.5227 79.4545 45.5455C79.4545 48.5682 79.9545 51.1193 80.9545 53.1989C81.9659 55.2784 83.3239 56.8523 85.0284 57.9205C86.7443 58.9886 88.6591 59.5227 90.7727 59.5227C91.9318 59.5227 93.0455 59.3636 94.1136 59.0455C95.1818 58.7273 96.1534 58.2557 97.0284 57.6307C97.9148 56.9943 98.6648 56.2159 99.2784 55.2955C99.9034 54.3636 100.341 53.2955 100.591 52.0909H104.818C104.5 53.875 103.92 55.4716 103.08 56.8807C102.239 58.2898 101.193 59.4886 99.9432 60.4773C98.6932 61.4545 97.2898 62.1989 95.733 62.7102C94.1875 63.2216 92.5341 63.4773 90.7727 63.4773C87.7955 63.4773 85.1477 62.75 82.8295 61.2955C80.5114 59.8409 78.6875 57.7727 77.358 55.0909C76.0284 52.4091 75.3636 49.2273 75.3636 45.5455C75.3636 41.8636 76.0284 38.6818 77.358 36C78.6875 33.3182 80.5114 31.25 82.8295 29.7955C85.1477 28.3409 87.7955 27.6136 90.7727 27.6136C92.5341 27.6136 94.1875 27.8693 95.733 28.3807C97.2898 28.892 98.6932 29.642 99.9432 30.6307C101.193 31.608 102.239 32.8011 103.08 34.2102C103.92 35.608 104.5 37.2045 104.818 39Z" fill="#F8F9FC"/>
<rect y="224" width="180" height="96" rx="8" fill="#181C2A"/>
<path d="M77.2955 279.841V276.364L92.6364 252.091H95.1591V257.477H93.4545L81.8636 275.818V276.091H102.523V279.841H77.2955ZM93.7273 287V278.784V277.165V252.091H97.75V287H93.7273Z" fill="#F8F9FC"/>
<rect y="336" width="180" height="96" rx="8" fill="#181C2A"/>
<path d="M94.3864 364.091V399H90.1591V368.523H89.9545L81.4318 374.182V369.886L90.1591 364.091H94.3864Z" fill="#F8F9FC"/>
<rect y="448" width="376" height="96" rx="8" fill="#181C2A"/>
<path d="M188 511.477C185.432 511.477 183.244 510.778 181.438 509.381C179.631 507.972 178.25 505.932 177.295 503.261C176.341 500.58 175.864 497.341 175.864 493.545C175.864 489.773 176.341 486.551 177.295 483.881C178.261 481.199 179.648 479.153 181.455 477.744C183.273 476.324 185.455 475.614 188 475.614C190.545 475.614 192.722 476.324 194.528 477.744C196.347 479.153 197.733 481.199 198.688 483.881C199.653 486.551 200.136 489.773 200.136 493.545C200.136 497.341 199.659 500.58 198.705 503.261C197.75 505.932 196.369 507.972 194.562 509.381C192.756 510.778 190.568 511.477 188 511.477ZM188 507.727C190.545 507.727 192.523 506.5 193.932 504.045C195.341 501.591 196.045 498.091 196.045 493.545C196.045 490.523 195.722 487.949 195.074 485.824C194.438 483.699 193.517 482.08 192.312 480.966C191.119 479.852 189.682 479.295 188 479.295C185.477 479.295 183.506 480.54 182.085 483.028C180.665 485.506 179.955 489.011 179.955 493.545C179.955 496.568 180.273 499.136 180.909 501.25C181.545 503.364 182.46 504.972 183.653 506.074C184.858 507.176 186.307 507.727 188 507.727Z" fill="#F8F9FC"/>
<rect x="196" y="112" width="180" height="96" rx="8" fill="#181C2A"/>
<path d="M285.795 175.477C283.455 175.477 281.386 175.062 279.591 174.233C277.807 173.392 276.415 172.239 275.415 170.773C274.415 169.295 273.92 167.614 273.932 165.727C273.92 164.25 274.21 162.886 274.801 161.636C275.392 160.375 276.199 159.324 277.222 158.483C278.256 157.631 279.409 157.091 280.682 156.864V156.659C279.011 156.227 277.682 155.29 276.693 153.847C275.705 152.392 275.216 150.739 275.227 148.886C275.216 147.114 275.665 145.528 276.574 144.131C277.483 142.733 278.733 141.631 280.324 140.824C281.926 140.017 283.75 139.614 285.795 139.614C287.818 139.614 289.625 140.017 291.216 140.824C292.807 141.631 294.057 142.733 294.966 144.131C295.886 145.528 296.352 147.114 296.364 148.886C296.352 150.739 295.847 152.392 294.847 153.847C293.858 155.29 292.545 156.227 290.909 156.659V156.864C292.17 157.091 293.307 157.631 294.318 158.483C295.33 159.324 296.136 160.375 296.739 161.636C297.341 162.886 297.648 164.25 297.659 165.727C297.648 167.614 297.136 169.295 296.125 170.773C295.125 172.239 293.733 173.392 291.949 174.233C290.176 175.062 288.125 175.477 285.795 175.477ZM285.795 171.727C287.375 171.727 288.739 171.472 289.886 170.96C291.034 170.449 291.92 169.727 292.545 168.795C293.17 167.864 293.489 166.773 293.5 165.523C293.489 164.205 293.148 163.04 292.477 162.028C291.807 161.017 290.892 160.222 289.733 159.642C288.585 159.062 287.273 158.773 285.795 158.773C284.307 158.773 282.977 159.062 281.807 159.642C280.648 160.222 279.733 161.017 279.062 162.028C278.403 163.04 278.08 164.205 278.091 165.523C278.08 166.773 278.381 167.864 278.994 168.795C279.619 169.727 280.511 170.449 281.67 170.96C282.83 171.472 284.205 171.727 285.795 171.727ZM285.795 155.159C287.045 155.159 288.153 154.909 289.119 154.409C290.097 153.909 290.864 153.21 291.42 152.312C291.977 151.415 292.261 150.364 292.273 149.159C292.261 147.977 291.983 146.949 291.438 146.074C290.892 145.187 290.136 144.506 289.17 144.028C288.205 143.54 287.08 143.295 285.795 143.295C284.489 143.295 283.347 143.54 282.369 144.028C281.392 144.506 280.636 145.187 280.102 146.074C279.568 146.949 279.307 147.977 279.318 149.159C279.307 150.364 279.574 151.415 280.119 152.312C280.676 153.21 281.443 153.909 282.42 154.409C283.398 154.909 284.523 155.159 285.795 155.159Z" fill="#F8F9FC"/>
<rect x="196" width="180" height="96" rx="8" fill="#181C2A"/>
<path d="M283.318 39H279.091C278.841 37.7841 278.403 36.7159 277.778 35.7955C277.165 34.875 276.415 34.1023 275.528 33.4773C274.653 32.8409 273.682 32.3636 272.614 32.0455C271.545 31.7273 270.432 31.5682 269.273 31.5682C267.159 31.5682 265.244 32.1023 263.528 33.1705C261.824 34.2386 260.466 35.8125 259.455 37.892C258.455 39.9716 257.955 42.5227 257.955 45.5455C257.955 48.5682 258.455 51.1193 259.455 53.1989C260.466 55.2784 261.824 56.8523 263.528 57.9205C265.244 58.9886 267.159 59.5227 269.273 59.5227C270.432 59.5227 271.545 59.3636 272.614 59.0455C273.682 58.7273 274.653 58.2557 275.528 57.6307C276.415 56.9943 277.165 56.2159 277.778 55.2955C278.403 54.3636 278.841 53.2955 279.091 52.0909H283.318C283 53.875 282.42 55.4716 281.58 56.8807C280.739 58.2898 279.693 59.4886 278.443 60.4773C277.193 61.4545 275.79 62.1989 274.233 62.7102C272.688 63.2216 271.034 63.4773 269.273 63.4773C266.295 63.4773 263.648 62.75 261.33 61.2955C259.011 59.8409 257.188 57.7727 255.858 55.0909C254.528 52.4091 253.864 49.2273 253.864 45.5455C253.864 41.8636 254.528 38.6818 255.858 36C257.188 33.3182 259.011 31.25 261.33 29.7955C263.648 28.3409 266.295 27.6136 269.273 27.6136C271.034 27.6136 272.688 27.8693 274.233 28.3807C275.79 28.892 277.193 29.642 278.443 30.6307C279.693 31.608 280.739 32.8011 281.58 34.2102C282.42 35.608 283 37.2045 283.318 39ZM318.24 39H314.013C313.763 37.7841 313.325 36.7159 312.7 35.7955C312.087 34.875 311.337 34.1023 310.45 33.4773C309.575 32.8409 308.604 32.3636 307.536 32.0455C306.467 31.7273 305.354 31.5682 304.195 31.5682C302.081 31.5682 300.166 32.1023 298.45 33.1705C296.746 34.2386 295.388 35.8125 294.376 37.892C293.376 39.9716 292.876 42.5227 292.876 45.5455C292.876 48.5682 293.376 51.1193 294.376 53.1989C295.388 55.2784 296.746 56.8523 298.45 57.9205C300.166 58.9886 302.081 59.5227 304.195 59.5227C305.354 59.5227 306.467 59.3636 307.536 59.0455C308.604 58.7273 309.575 58.2557 310.45 57.6307C311.337 56.9943 312.087 56.2159 312.7 55.2955C313.325 54.3636 313.763 53.2955 314.013 52.0909H318.24C317.922 53.875 317.342 55.4716 316.501 56.8807C315.661 58.2898 314.615 59.4886 313.365 60.4773C312.115 61.4545 310.712 62.1989 309.155 62.7102C307.609 63.2216 305.956 63.4773 304.195 63.4773C301.217 63.4773 298.57 62.75 296.251 61.2955C293.933 59.8409 292.109 57.7727 290.78 55.0909C289.45 52.4091 288.786 49.2273 288.786 45.5455C288.786 41.8636 289.45 38.6818 290.78 36C292.109 33.3182 293.933 31.25 296.251 29.7955C298.57 28.3409 301.217 27.6136 304.195 27.6136C305.956 27.6136 307.609 27.8693 309.155 28.3807C310.712 28.892 312.115 29.642 313.365 30.6307C314.615 31.608 315.661 32.8011 316.501 34.2102C317.342 35.608 317.922 37.2045 318.24 39Z" fill="#F8F9FC"/>
<rect x="196" y="224" width="180" height="96" rx="8" fill="#181C2A"/>
<path d="M285.523 287.477C283.523 287.477 281.722 287.08 280.119 286.284C278.517 285.489 277.233 284.398 276.267 283.011C275.301 281.625 274.773 280.045 274.682 278.273H278.773C278.932 279.852 279.648 281.159 280.92 282.193C282.205 283.216 283.739 283.727 285.523 283.727C286.955 283.727 288.227 283.392 289.341 282.722C290.466 282.051 291.347 281.131 291.983 279.96C292.631 278.778 292.955 277.443 292.955 275.955C292.955 274.432 292.619 273.074 291.949 271.881C291.29 270.676 290.381 269.727 289.222 269.034C288.063 268.341 286.739 267.989 285.25 267.977C284.182 267.966 283.085 268.131 281.96 268.472C280.835 268.801 279.909 269.227 279.182 269.75L275.227 269.273L277.341 252.091H295.477V255.841H280.886L279.659 266.136H279.864C280.58 265.568 281.477 265.097 282.557 264.722C283.636 264.347 284.761 264.159 285.932 264.159C288.068 264.159 289.972 264.67 291.642 265.693C293.324 266.705 294.642 268.091 295.597 269.852C296.562 271.614 297.045 273.625 297.045 275.886C297.045 278.114 296.545 280.102 295.545 281.852C294.557 283.591 293.193 284.966 291.455 285.977C289.716 286.977 287.739 287.477 285.523 287.477Z" fill="#F8F9FC"/>
<rect x="196" y="336" width="180" height="96" rx="8" fill="#181C2A"/>
<path d="M274.614 399V395.932L286.136 383.318C287.489 381.841 288.602 380.557 289.477 379.466C290.352 378.364 291 377.33 291.42 376.364C291.852 375.386 292.068 374.364 292.068 373.295C292.068 372.068 291.773 371.006 291.182 370.108C290.602 369.21 289.807 368.517 288.795 368.028C287.784 367.54 286.648 367.295 285.386 367.295C284.045 367.295 282.875 367.574 281.875 368.131C280.886 368.676 280.119 369.443 279.574 370.432C279.04 371.42 278.773 372.58 278.773 373.909H274.75C274.75 371.864 275.222 370.068 276.165 368.523C277.108 366.977 278.392 365.773 280.017 364.909C281.653 364.045 283.489 363.614 285.523 363.614C287.568 363.614 289.381 364.045 290.96 364.909C292.54 365.773 293.778 366.937 294.676 368.403C295.574 369.869 296.023 371.5 296.023 373.295C296.023 374.58 295.79 375.835 295.324 377.062C294.869 378.278 294.074 379.636 292.938 381.136C291.812 382.625 290.25 384.443 288.25 386.591L280.409 394.977V395.25H296.636V399H274.614Z" fill="#F8F9FC"/>
<rect x="392" y="112" width="180" height="96" rx="8" fill="#181C2A"/>
<path d="M481.727 139.614C483.159 139.625 484.591 139.898 486.023 140.432C487.455 140.966 488.761 141.852 489.943 143.091C491.125 144.318 492.074 145.994 492.79 148.119C493.506 150.244 493.864 152.909 493.864 156.114C493.864 159.216 493.568 161.972 492.977 164.381C492.398 166.778 491.557 168.801 490.455 170.449C489.364 172.097 488.034 173.347 486.466 174.199C484.909 175.051 483.148 175.477 481.182 175.477C479.227 175.477 477.483 175.091 475.949 174.318C474.426 173.534 473.176 172.449 472.199 171.062C471.233 169.665 470.614 168.045 470.341 166.205H474.5C474.875 167.807 475.619 169.131 476.733 170.176C477.858 171.21 479.341 171.727 481.182 171.727C483.875 171.727 486 170.551 487.557 168.199C489.125 165.847 489.909 162.523 489.909 158.227H489.636C489 159.182 488.244 160.006 487.369 160.699C486.494 161.392 485.523 161.926 484.455 162.301C483.386 162.676 482.25 162.864 481.045 162.864C479.045 162.864 477.21 162.369 475.54 161.381C473.881 160.381 472.551 159.011 471.551 157.273C470.562 155.523 470.068 153.523 470.068 151.273C470.068 149.136 470.545 147.182 471.5 145.409C472.466 143.625 473.818 142.205 475.557 141.148C477.307 140.091 479.364 139.58 481.727 139.614ZM481.727 143.364C480.295 143.364 479.006 143.722 477.858 144.438C476.722 145.142 475.818 146.097 475.148 147.301C474.489 148.494 474.159 149.818 474.159 151.273C474.159 152.727 474.477 154.051 475.114 155.244C475.761 156.426 476.642 157.369 477.756 158.074C478.881 158.767 480.159 159.114 481.591 159.114C482.67 159.114 483.676 158.903 484.608 158.483C485.54 158.051 486.352 157.466 487.045 156.727C487.75 155.977 488.301 155.131 488.699 154.188C489.097 153.233 489.295 152.239 489.295 151.205C489.295 149.841 488.966 148.562 488.307 147.369C487.659 146.176 486.761 145.21 485.614 144.472C484.477 143.733 483.182 143.364 481.727 143.364Z" fill="#F8F9FC"/>
<rect x="392" width="180" height="96" rx="8" fill="#181C2A"/>
<path d="M480.364 47.7273L480.636 40.2273L474.295 44.25L472.659 41.3864L479.341 37.9091L472.659 34.4318L474.295 31.5682L480.636 35.5909L480.364 28.0909H483.636L483.364 35.5909L489.705 31.5682L491.341 34.4318L484.659 37.9091L491.341 41.3864L489.705 44.25L483.364 40.2273L483.636 47.7273H480.364Z" fill="#F8F9FC"/>
<rect x="392" y="224" width="180" height="96" rx="8" fill="#181C2A"/>
<path d="M482.205 287.477C480.773 287.455 479.341 287.182 477.909 286.659C476.477 286.136 475.17 285.256 473.989 284.017C472.807 282.767 471.858 281.08 471.142 278.955C470.426 276.818 470.068 274.136 470.068 270.909C470.068 267.818 470.358 265.08 470.938 262.693C471.517 260.295 472.358 258.278 473.46 256.642C474.563 254.994 475.892 253.744 477.449 252.892C479.017 252.04 480.784 251.614 482.75 251.614C484.705 251.614 486.443 252.006 487.966 252.79C489.5 253.562 490.75 254.642 491.716 256.028C492.682 257.415 493.307 259.011 493.591 260.818H489.432C489.045 259.25 488.295 257.949 487.182 256.915C486.068 255.881 484.591 255.364 482.75 255.364C480.045 255.364 477.915 256.54 476.358 258.892C474.813 261.244 474.034 264.545 474.023 268.795H474.295C474.932 267.83 475.688 267.006 476.562 266.324C477.449 265.631 478.426 265.097 479.494 264.722C480.563 264.347 481.693 264.159 482.886 264.159C484.886 264.159 486.716 264.659 488.375 265.659C490.034 266.648 491.364 268.017 492.364 269.767C493.364 271.506 493.864 273.5 493.864 275.75C493.864 277.909 493.381 279.886 492.415 281.682C491.449 283.466 490.091 284.886 488.341 285.943C486.602 286.989 484.557 287.5 482.205 287.477ZM482.205 283.727C483.636 283.727 484.92 283.369 486.057 282.653C487.205 281.937 488.108 280.977 488.767 279.773C489.438 278.568 489.773 277.227 489.773 275.75C489.773 274.307 489.449 272.994 488.801 271.812C488.165 270.619 487.284 269.67 486.159 268.966C485.045 268.261 483.773 267.909 482.341 267.909C481.261 267.909 480.256 268.125 479.324 268.557C478.392 268.977 477.574 269.557 476.869 270.295C476.176 271.034 475.631 271.881 475.233 272.835C474.835 273.778 474.636 274.773 474.636 275.818C474.636 277.205 474.96 278.5 475.608 279.705C476.267 280.909 477.165 281.881 478.301 282.619C479.449 283.358 480.75 283.727 482.205 283.727Z" fill="#F8F9FC"/>
<rect x="392" y="336" width="180" height="96" rx="8" fill="#181C2A"/>
<path d="M481.909 399.477C479.659 399.477 477.653 399.091 475.892 398.318C474.142 397.545 472.75 396.472 471.716 395.097C470.693 393.71 470.136 392.102 470.045 390.273H474.341C474.432 391.398 474.818 392.369 475.5 393.188C476.182 393.994 477.074 394.619 478.176 395.062C479.278 395.506 480.5 395.727 481.841 395.727C483.341 395.727 484.67 395.466 485.83 394.943C486.989 394.42 487.898 393.693 488.557 392.761C489.216 391.83 489.545 390.75 489.545 389.523C489.545 388.239 489.227 387.108 488.591 386.131C487.955 385.142 487.023 384.369 485.795 383.812C484.568 383.256 483.068 382.977 481.295 382.977H478.5V379.227H481.295C482.682 379.227 483.898 378.977 484.943 378.477C486 377.977 486.824 377.273 487.415 376.364C488.017 375.455 488.318 374.386 488.318 373.159C488.318 371.977 488.057 370.949 487.534 370.074C487.011 369.199 486.273 368.517 485.318 368.028C484.375 367.54 483.261 367.295 481.977 367.295C480.773 367.295 479.636 367.517 478.568 367.96C477.511 368.392 476.648 369.023 475.977 369.852C475.307 370.67 474.943 371.659 474.886 372.818H470.795C470.864 370.989 471.415 369.386 472.449 368.011C473.483 366.625 474.835 365.545 476.506 364.773C478.188 364 480.034 363.614 482.045 363.614C484.205 363.614 486.057 364.051 487.602 364.926C489.148 365.79 490.335 366.932 491.165 368.352C491.994 369.773 492.409 371.307 492.409 372.955C492.409 374.92 491.892 376.597 490.858 377.983C489.835 379.369 488.443 380.33 486.682 380.864V381.136C488.886 381.5 490.608 382.437 491.847 383.949C493.085 385.449 493.705 387.307 493.705 389.523C493.705 391.42 493.188 393.125 492.153 394.636C491.131 396.136 489.733 397.318 487.96 398.182C486.188 399.045 484.17 399.477 481.909 399.477Z" fill="#F8F9FC"/>
<rect x="392" y="448" width="180" height="96" rx="8" fill="#181C2A"/>
<path d="M481.614 511.273C480.773 511.273 480.051 510.972 479.449 510.369C478.847 509.767 478.545 509.045 478.545 508.205C478.545 507.364 478.847 506.642 479.449 506.04C480.051 505.437 480.773 505.136 481.614 505.136C482.455 505.136 483.176 505.437 483.778 506.04C484.381 506.642 484.682 507.364 484.682 508.205C484.682 508.761 484.54 509.273 484.256 509.739C483.983 510.205 483.614 510.58 483.148 510.864C482.693 511.136 482.182 511.273 481.614 511.273Z" fill="#F8F9FC"/>
<rect x="588" y="112" width="180" height="96" rx="8" fill="#181C2A"/>
<path d="M685.182 158.159V161.909H669.909V158.159H685.182Z" fill="#F8F9FC"/>
<rect x="588" width="180" height="96" rx="8" fill="#181C2A"/>
<path d="M685.023 26.4545L673.773 68.25H670.091L681.341 26.4545H685.023Z" fill="#F8F9FC"/>
<rect x="588" y="224" width="180" height="96" rx="8" fill="#181C2A"/>
<path d="M675.909 284.614V262.114H679.727V284.614H675.909ZM666.568 275.273V271.455H689.068V275.273H666.568Z" fill="#F8F9FC"/>
<rect x="588" y="336" width="180" height="208" rx="8" fill="#181C2A"/>
<path d="M667.318 438.159V434.477H688.318V438.159H667.318ZM667.318 448.25V444.568H688.318V448.25H667.318Z" fill="#F8F9FC"/>
</svg>
